# xmcd
#
# Track frame offsets: 
#        150
#        17102
#        33125
#
# Disc length: 671 seconds
#
# Revision: 1
# Processed by: cddbd v1.5.1PL0 Copyright (c) Steve Scherf et al.
# Submitted via: ExactAudioCopy v0.95a5
#
DISCID=17029d03
DTITLE=Editors - Munich (single)
DYEAR=2005
DGENRE=Rock
TTITLE0=Munich
TTITLE1=Crawl Down The Wall
TTITLE2=Colours
EXTD=
EXTT0=
EXTT1=
EXTT2=
PLAYORDER=
